# xmcd CD database file
#
# Track frame offsets:
#	150
#	16746
#	33675
#	49913
#	66770
#	92028
#	112446
#	132962
#	151706
#	172664
#	190786
#	212760
#	228346
#
# Disc length: 3309 seconds
#
# Revision: 0
# Processed by: cddbd v1.5.2PL0 Copyright (c) Steve Scherf et al.
# Submitted via: CDex 1.51
#
DISCID=a90ceb0d
DTITLE=Wallance Davenport - The definitive Black and Blue Sessions
DYEAR=1980
DGENRE=Blues
TTITLE0=Royal Garcen Blues
TTITLE1=Basin Street Blues
TTITLE2=Blame it on the Blues
TTITLE3=That's a Plenty
TTITLE4=Who's Sorry Now
TTITLE5=Tin Roof Blues
TTITLE6=Messin' Around
TTITLE7=Original Dixeland One Step
TTITLE8=Sweet Georgia Brown
TTITLE9=All of Me
TTITLE10=On the Sunny Side of the Street
TTITLE11=Blame it on the Blues (take 1)
TTITLE12=Sweet Georgia Brown (take 1)
EXTD=YEAR: 1980
EXTT0=
EXTT1=
EXTT2=
EXTT3=
EXTT4=
EXTT5=
EXTT6=
EXTT7=
EXTT8=
EXTT9=
EXTT10=
EXTT11=
EXTT12=
PLAYORDER=
